<svg xmlns="http://www.w3.org/2000/svg" viewBox="0 0 100 100" width="100" height="100">
  <!-- Python logo inspired: two intertwined snake/coil shapes -->
  <!-- Top snake body (left) -->
  <path d="M50 10 C30 10 20 18 20 30 L20 38 C20 44 24 48 30 48 L50 48 C56 48 60 52 60 58 L60 70 C60 82 50 90 30 90"
        fill="none" stroke="white" stroke-width="8" stroke-linecap="round" stroke-linejoin="round"/>
  <!-- Bottom snake body (right) -->
  <path d="M50 90 C70 90 80 82 80 70 L80 62 C80 56 76 52 70 52 L50 52 C44 52 40 48 40 42 L40 30 C40 18 50 10 70 10"
        fill="none" stroke="white" stroke-width="8" stroke-linecap="round" stroke-linejoin="round"/>
  <!-- Top snake head -->
  <circle cx="50" cy="10" r="7" fill="white"/>
  <!-- Bottom snake head -->
  <circle cx="50" cy="90" r="7" fill="white"/>
</svg>
